<svg xmlns="http://www.w3.org/2000/svg" width="512" height="512" viewBox="0 0 512 512" fill="none">
  <rect width="512" height="512" rx="108" fill="#4F46E5"/>
  <rect x="80" y="140" width="200" height="150" rx="18" fill="white" opacity="0.95"/>
  <rect x="100" y="170" width="100" height="8" rx="4" fill="#818CF8"/>
  <rect x="100" y="190" width="160" height="6" rx="3" fill="#C7D2FE"/>
  <rect x="100" y="206" width="140" height="6" rx="3" fill="#C7D2FE"/>
  <rect x="100" y="222" width="120" height="6" rx="3" fill="#C7D2FE"/>
  <rect x="100" y="248" width="60" height="20" rx="6" fill="#4F46E5" opacity="0.15"/>
  <rect x="232" y="200" width="352" height="240" rx="22" fill="white" transform="translate(-70 0)"/>
  <rect x="182" y="228" width="120" height="10" rx="5" fill="#6366F1"/>
  <rect x="182" y="250" width="240" height="7" rx="3.5" fill="#CBD5E1"/>
  <rect x="182" y="268" width="220" height="7" rx="3.5" fill="#CBD5E1"/>
  <rect x="182" y="286" width="200" height="7" rx="3.5" fill="#CBD5E1"/>
  <rect x="182" y="316" width="70" height="60" rx="10" fill="#EEF2FF"/>
  <rect x="264" y="316" width="70" height="60" rx="10" fill="#F0FDF4"/>
  <rect x="346" y="316" width="70" height="60" rx="10" fill="#FFF7ED"/>
  <path d="M400 120 L440 148 L400 176 Z" fill="white" opacity="0.9"/>
  <circle cx="420" cy="148" r="52" stroke="white" stroke-width="8" fill="none" opacity="0.3"/>
</svg>
